<svg width="60" height="43" viewBox="0 0 60 43" fill="none" xmlns="http://www.w3.org/2000/svg">
<path d="M30 0L30.0058 29.9705L41.4806 2.2836L30.0167 29.9751L51.2131 8.78681L30.0249 29.9833L57.7164 18.5194L30.0295 29.9942L60 30L30.0295 30.0058L57.7164 41.4806L30.0249 30.0167L51.2131 51.2131L30.0167 30.0249L41.4806 57.7164L30.0058 30.0295L30 60L29.9942 30.0295L18.5194 57.7164L29.9833 30.0249L8.78681 51.2131L29.9751 30.0167L2.2836 41.4806L29.9705 30.0058L0 30L29.9705 29.9942L2.2836 18.5194L29.9751 29.9833L8.78681 8.78681L29.9833 29.9751L18.5194 2.2836L29.9942 29.9705L30 0Z" stroke="#161C2E" stroke-width="1.5"/>
</svg>
