<svg width="750" height="60" viewBox="0 0 750 60" fill="none" xmlns="http://www.w3.org/2000/svg">
<g clip-path="url(#clip0_41_48)">
<rect width="375" height="60" fill="#FFFDB7"/>
<path d="M64 17L64.0058 46.9705L75.4806 19.2836L64.0167 46.9751L85.2131 25.7868L64.0249 46.9833L91.7164 35.5194L64.0295 46.9942L94 47L64.0295 47.0058L91.7164 58.4806L64.0249 47.0167L85.2131 68.2131L64.0167 47.0249L75.4806 74.7164L64.0058 47.0295L64 77L63.9942 47.0295L52.5194 74.7164L63.9833 47.0249L42.7868 68.2131L63.9751 47.0167L36.2836 58.4806L63.9705 47.0058L34 47L63.9705 46.9942L36.2836 35.5194L63.9751 46.9833L42.7868 25.7868L63.9833 46.9751L52.5194 19.2836L63.9942 46.9705L64 17Z" stroke="#161C2E" stroke-width="1.5"/>
<path d="M267.876 2.27502L268 0.531381L268.124 2.27502C268.436 6.65197 269.628 10.5974 271.429 13.599C273.224 16.5909 275.674 18.7189 278.521 19.282L282.152 20L278.521 20.718C275.674 21.2811 273.224 23.4091 271.429 26.401C269.628 29.4026 268.436 33.348 268.124 37.7249L268 39.4686L267.876 37.7249C267.564 33.348 266.372 29.4026 264.571 26.401C262.776 23.4091 260.326 21.2811 257.479 20.718L253.848 20L257.479 19.282C260.326 18.7189 262.776 16.5909 264.571 13.599C266.372 10.5974 267.564 6.65197 267.876 2.27502Z" stroke="#161C2E" stroke-width="1.5"/>
<path d="M18.5211 37V23H21.0411V28.3H21.4011C21.5078 28.0867 21.6744 27.8733 21.9011 27.66C22.1278 27.4467 22.4278 27.2733 22.8011 27.14C23.1878 26.9933 23.6744 26.92 24.2611 26.92C25.0344 26.92 25.7078 27.1 26.2811 27.46C26.8678 27.8067 27.3211 28.2933 27.6411 28.92C27.9611 29.5333 28.1211 30.2533 28.1211 31.08V37H25.6011V31.28C25.6011 30.5333 25.4144 29.9733 25.0411 29.6C24.6811 29.2267 24.1611 29.04 23.4811 29.04C22.7078 29.04 22.1078 29.3 21.6811 29.82C21.2544 30.3267 21.0411 31.04 21.0411 31.96V37H18.5211ZM30.8453 37V27.08H33.3653V37H30.8453ZM32.1053 25.92C31.652 25.92 31.2653 25.7733 30.9453 25.48C30.6386 25.1867 30.4853 24.8 30.4853 24.32C30.4853 23.84 30.6386 23.4533 30.9453 23.16C31.2653 22.8667 31.652 22.72 32.1053 22.72C32.572 22.72 32.9586 22.8667 33.2653 23.16C33.572 23.4533 33.7253 23.84 33.7253 24.32C33.7253 24.8 33.572 25.1867 33.2653 25.48C32.9586 25.7733 32.572 25.92 32.1053 25.92ZM35.6778 32.08V31.76C35.6778 30.72 35.8845 29.8333 36.2978 29.1C36.7111 28.3533 37.2578 27.7867 37.9378 27.4C38.6311 27 39.3845 26.8 40.1978 26.8C41.1045 26.8 41.7911 26.96 42.2578 27.28C42.7245 27.6 43.0645 27.9333 43.2778 28.28H43.6378V27.08H46.1178V38.76C46.1178 39.44 45.9178 39.98 45.5178 40.38C45.1178 40.7933 44.5845 41 43.9178 41H37.2778V38.8H43.0378C43.4111 38.8 43.5978 38.6 43.5978 38.2V35.62H43.2378C43.1045 35.8333 42.9178 36.0533 42.6778 36.28C42.4378 36.4933 42.1178 36.6733 41.7178 36.82C41.3178 36.9667 40.8111 37.04 40.1978 37.04C39.3845 37.04 38.6311 36.8467 37.9378 36.46C37.2578 36.06 36.7111 35.4933 36.2978 34.76C35.8845 34.0133 35.6778 33.12 35.6778 32.08ZM40.9178 34.84C41.6911 34.84 42.3378 34.5933 42.8578 34.1C43.3778 33.6067 43.6378 32.9133 43.6378 32.02V31.82C43.6378 30.9133 43.3778 30.22 42.8578 29.74C42.3511 29.2467 41.7045 29 40.9178 29C40.1445 29 39.4978 29.2467 38.9778 29.74C38.4578 30.22 38.1978 30.9133 38.1978 31.82V32.02C38.1978 32.9133 38.4578 33.6067 38.9778 34.1C39.4978 34.5933 40.1445 34.84 40.9178 34.84ZM48.9117 37V23H51.4317V28.3H51.7917C51.8984 28.0867 52.0651 27.8733 52.2917 27.66C52.5184 27.4467 52.8184 27.2733 53.1917 27.14C53.5784 26.9933 54.0651 26.92 54.6517 26.92C55.4251 26.92 56.0984 27.1 56.6717 27.46C57.2584 27.8067 57.7117 28.2933 58.0317 28.92C58.3517 29.5333 58.5117 30.2533 58.5117 31.08V37H55.9917V31.28C55.9917 30.5333 55.8051 29.9733 55.4317 29.6C55.0717 29.2267 54.5517 29.04 53.8717 29.04C53.0984 29.04 52.4984 29.3 52.0717 29.82C51.6451 30.3267 51.4317 31.04 51.4317 31.96V37H48.9117ZM61.1959 33.04V30.76H67.1159V33.04H61.1959ZM74.3888 37.28C73.4021 37.28 72.5288 37.0733 71.7688 36.66C71.0221 36.2333 70.4354 35.64 70.0088 34.88C69.5954 34.1067 69.3888 33.2 69.3888 32.16V31.92C69.3888 30.88 69.5954 29.98 70.0088 29.22C70.4221 28.4467 71.0021 27.8533 71.7488 27.44C72.4954 27.0133 73.3621 26.8 74.3487 26.8C75.3221 26.8 76.1688 27.02 76.8888 27.46C77.6088 27.8867 78.1688 28.4867 78.5687 29.26C78.9688 30.02 79.1688 30.9067 79.1688 31.92V32.78H71.9488C71.9754 33.46 72.2288 34.0133 72.7088 34.44C73.1888 34.8667 73.7754 35.08 74.4688 35.08C75.1754 35.08 75.6954 34.9267 76.0288 34.62C76.3621 34.3133 76.6154 33.9733 76.7888 33.6L78.8488 34.68C78.6621 35.0267 78.3888 35.4067 78.0288 35.82C77.6821 36.22 77.2154 36.5667 76.6288 36.86C76.0421 37.14 75.2954 37.28 74.3888 37.28ZM71.9688 30.9H76.6088C76.5554 30.3267 76.3221 29.8667 75.9088 29.52C75.5088 29.1733 74.9821 29 74.3288 29C73.6488 29 73.1088 29.1733 72.7088 29.52C72.3088 29.8667 72.0621 30.3267 71.9688 30.9ZM81.4117 37V27.08H83.8917V28.38H84.2517C84.4117 28.0333 84.7117 27.7067 85.1517 27.4C85.5917 27.08 86.2584 26.92 87.1517 26.92C87.9251 26.92 88.5984 27.1 89.1717 27.46C89.7584 27.8067 90.2117 28.2933 90.5317 28.92C90.8517 29.5333 91.0117 30.2533 91.0117 31.08V37H88.4917V31.28C88.4917 30.5333 88.3051 29.9733 87.9317 29.6C87.5717 29.2267 87.0517 29.04 86.3717 29.04C85.5984 29.04 84.9984 29.3 84.5717 29.82C84.1451 30.3267 83.9317 31.04 83.9317 31.96V37H81.4117ZM97.7359 37.28C96.9493 37.28 96.2093 37.0867 95.5159 36.7C94.8359 36.3 94.2893 35.72 93.8759 34.96C93.4626 34.2 93.2559 33.28 93.2559 32.2V31.88C93.2559 30.8 93.4626 29.88 93.8759 29.12C94.2893 28.36 94.8359 27.7867 95.5159 27.4C96.1959 27 96.9359 26.8 97.7359 26.8C98.3359 26.8 98.8359 26.8733 99.2359 27.02C99.6493 27.1533 99.9826 27.3267 100.236 27.54C100.489 27.7533 100.683 27.98 100.816 28.22H101.176V23H103.696V37H101.216V35.8H100.856C100.629 36.1733 100.276 36.5133 99.7959 36.82C99.3293 37.1267 98.6426 37.28 97.7359 37.28ZM98.4959 35.08C99.2693 35.08 99.9159 34.8333 100.436 34.34C100.956 33.8333 101.216 33.1 101.216 32.14V31.94C101.216 30.98 100.956 30.2533 100.436 29.76C99.9293 29.2533 99.2826 29 98.4959 29C97.7226 29 97.0759 29.2533 96.5559 29.76C96.0359 30.2533 95.7759 30.98 95.7759 31.94V32.14C95.7759 33.1 96.0359 33.8333 96.5559 34.34C97.0759 34.8333 97.7226 35.08 98.4959 35.08ZM115.688 37.28C114.395 37.28 113.335 37 112.508 36.44C111.681 35.88 111.181 35.08 111.008 34.04L113.328 33.44C113.421 33.9067 113.575 34.2733 113.788 34.54C114.015 34.8067 114.288 35 114.608 35.12C114.941 35.2267 115.301 35.28 115.688 35.28C116.275 35.28 116.708 35.18 116.988 34.98C117.268 34.7667 117.408 34.5067 117.408 34.2C117.408 33.8933 117.275 33.66 117.008 33.5C116.741 33.3267 116.315 33.1867 115.728 33.08L115.168 32.98C114.475 32.8467 113.841 32.6667 113.268 32.44C112.695 32.2 112.235 31.8733 111.888 31.46C111.541 31.0467 111.368 30.5133 111.368 29.86C111.368 28.8733 111.728 28.12 112.448 27.6C113.168 27.0667 114.115 26.8 115.288 26.8C116.395 26.8 117.315 27.0467 118.048 27.54C118.781 28.0333 119.261 28.68 119.488 29.48L117.148 30.2C117.041 29.6933 116.821 29.3333 116.488 29.12C116.168 28.9067 115.768 28.8 115.288 28.8C114.808 28.8 114.441 28.8867 114.188 29.06C113.935 29.22 113.808 29.4467 113.808 29.74C113.808 30.06 113.941 30.3 114.208 30.46C114.475 30.6067 114.835 30.72 115.288 30.8L115.848 30.9C116.595 31.0333 117.268 31.2133 117.868 31.44C118.481 31.6533 118.961 31.9667 119.308 32.38C119.668 32.78 119.848 33.3267 119.848 34.02C119.848 35.06 119.468 35.8667 118.708 36.44C117.961 37 116.955 37.28 115.688 37.28ZM125.058 37.28C124.351 37.28 123.718 37.16 123.158 36.92C122.598 36.6667 122.151 36.3067 121.818 35.84C121.498 35.36 121.338 34.78 121.338 34.1C121.338 33.42 121.498 32.8533 121.818 32.4C122.151 31.9333 122.605 31.5867 123.178 31.36C123.765 31.12 124.431 31 125.178 31H127.898V30.44C127.898 29.9733 127.751 29.5933 127.458 29.3C127.165 28.9933 126.698 28.84 126.058 28.84C125.431 28.84 124.965 28.9867 124.658 29.28C124.351 29.56 124.151 29.9267 124.058 30.38L121.738 29.6C121.898 29.0933 122.151 28.6333 122.498 28.22C122.858 27.7933 123.331 27.4533 123.918 27.2C124.518 26.9333 125.245 26.8 126.098 26.8C127.405 26.8 128.438 27.1267 129.198 27.78C129.958 28.4333 130.338 29.38 130.338 30.62V34.32C130.338 34.72 130.525 34.92 130.898 34.92H131.698V37H130.018C129.525 37 129.118 36.88 128.798 36.64C128.478 36.4 128.318 36.08 128.318 35.68V35.66H127.938C127.885 35.82 127.765 36.0333 127.578 36.3C127.391 36.5533 127.098 36.78 126.698 36.98C126.298 37.18 125.751 37.28 125.058 37.28ZM125.498 35.24C126.205 35.24 126.778 35.0467 127.218 34.66C127.671 34.26 127.898 33.7333 127.898 33.08V32.88H125.358C124.891 32.88 124.525 32.98 124.258 33.18C123.991 33.38 123.858 33.66 123.858 34.02C123.858 34.38 123.998 34.6733 124.278 34.9C124.558 35.1267 124.965 35.24 125.498 35.24ZM133.541 37V23H136.061V37H133.541ZM143.373 37.28C142.386 37.28 141.513 37.0733 140.753 36.66C140.006 36.2333 139.42 35.64 138.993 34.88C138.58 34.1067 138.373 33.2 138.373 32.16V31.92C138.373 30.88 138.58 29.98 138.993 29.22C139.406 28.4467 139.986 27.8533 140.733 27.44C141.48 27.0133 142.346 26.8 143.333 26.8C144.306 26.8 145.153 27.02 145.873 27.46C146.593 27.8867 147.153 28.4867 147.553 29.26C147.953 30.02 148.153 30.9067 148.153 31.92V32.78H140.933C140.96 33.46 141.213 34.0133 141.693 34.44C142.173 34.8667 142.76 35.08 143.453 35.08C144.16 35.08 144.68 34.9267 145.013 34.62C145.346 34.3133 145.6 33.9733 145.773 33.6L147.833 34.68C147.646 35.0267 147.373 35.4067 147.013 35.82C146.666 36.22 146.2 36.5667 145.613 36.86C145.026 37.14 144.28 37.28 143.373 37.28ZM140.953 30.9H145.593C145.54 30.3267 145.306 29.8667 144.893 29.52C144.493 29.1733 143.966 29 143.313 29C142.633 29 142.093 29.1733 141.693 29.52C141.293 29.8667 141.046 30.3267 140.953 30.9ZM154.516 37.28C153.223 37.28 152.163 37 151.336 36.44C150.509 35.88 150.009 35.08 149.836 34.04L152.156 33.44C152.249 33.9067 152.403 34.2733 152.616 34.54C152.843 34.8067 153.116 35 153.436 35.12C153.769 35.2267 154.129 35.28 154.516 35.28C155.103 35.28 155.536 35.18 155.816 34.98C156.096 34.7667 156.236 34.5067 156.236 34.2C156.236 33.8933 156.103 33.66 155.836 33.5C155.569 33.3267 155.143 33.1867 154.556 33.08L153.996 32.98C153.303 32.8467 152.669 32.6667 152.096 32.44C151.523 32.2 151.063 31.8733 150.716 31.46C150.369 31.0467 150.196 30.5133 150.196 29.86C150.196 28.8733 150.556 28.12 151.276 27.6C151.996 27.0667 152.943 26.8 154.116 26.8C155.223 26.8 156.143 27.0467 156.876 27.54C157.609 28.0333 158.089 28.68 158.316 29.48L155.976 30.2C155.869 29.6933 155.649 29.3333 155.316 29.12C154.996 28.9067 154.596 28.8 154.116 28.8C153.636 28.8 153.269 28.8867 153.016 29.06C152.763 29.22 152.636 29.4467 152.636 29.74C152.636 30.06 152.769 30.3 153.036 30.46C153.303 30.6067 153.663 30.72 154.116 30.8L154.676 30.9C155.423 31.0333 156.096 31.2133 156.696 31.44C157.309 31.6533 157.789 31.9667 158.136 32.38C158.496 32.78 158.676 33.3267 158.676 34.02C158.676 35.06 158.296 35.8667 157.536 36.44C156.789 37 155.783 37.28 154.516 37.28ZM170.683 37.28C169.696 37.28 168.809 37.08 168.023 36.68C167.236 36.28 166.616 35.7 166.163 34.94C165.709 34.18 165.483 33.2667 165.483 32.2V31.88C165.483 30.8133 165.709 29.9 166.163 29.14C166.616 28.38 167.236 27.8 168.023 27.4C168.809 27 169.696 26.8 170.683 26.8C171.669 26.8 172.556 27 173.343 27.4C174.129 27.8 174.749 28.38 175.203 29.14C175.656 29.9 175.883 30.8133 175.883 31.88V32.2C175.883 33.2667 175.656 34.18 175.203 34.94C174.749 35.7 174.129 36.28 173.343 36.68C172.556 37.08 171.669 37.28 170.683 37.28ZM170.683 35.04C171.456 35.04 172.096 34.7933 172.603 34.3C173.109 33.7933 173.363 33.0733 173.363 32.14V31.94C173.363 31.0067 173.109 30.2933 172.603 29.8C172.109 29.2933 171.469 29.04 170.683 29.04C169.909 29.04 169.269 29.2933 168.763 29.8C168.256 30.2933 168.003 31.0067 168.003 31.94V32.14C168.003 33.0733 168.256 33.7933 168.763 34.3C169.269 34.7933 169.909 35.04 170.683 35.04ZM179.517 37V29.16H176.997V27.08H179.517V25.24C179.517 24.56 179.717 24.02 180.117 23.62C180.53 23.2067 181.063 23 181.717 23H184.317V25.08H182.597C182.223 25.08 182.037 25.28 182.037 25.68V27.08H184.637V29.16H182.037V37H179.517ZM191.666 41V27.08H194.146V28.28H194.506C194.732 27.8933 195.086 27.5533 195.566 27.26C196.046 26.9533 196.732 26.8 197.626 26.8C198.426 26.8 199.166 27 199.846 27.4C200.526 27.7867 201.072 28.36 201.486 29.12C201.899 29.88 202.106 30.8 202.106 31.88V32.2C202.106 33.28 201.899 34.2 201.486 34.96C201.072 35.72 200.526 36.3 199.846 36.7C199.166 37.0867 198.426 37.28 197.626 37.28C197.026 37.28 196.519 37.2067 196.106 37.06C195.706 36.9267 195.379 36.7533 195.126 36.54C194.886 36.3133 194.692 36.0867 194.546 35.86H194.186V41H191.666ZM196.866 35.08C197.652 35.08 198.299 34.8333 198.806 34.34C199.326 33.8333 199.586 33.1 199.586 32.14V31.94C199.586 30.98 199.326 30.2533 198.806 29.76C198.286 29.2533 197.639 29 196.866 29C196.092 29 195.446 29.2533 194.926 29.76C194.406 30.2533 194.146 30.98 194.146 31.94V32.14C194.146 33.1 194.406 33.8333 194.926 34.34C195.446 34.8333 196.092 35.08 196.866 35.08ZM209.14 37.28C208.153 37.28 207.266 37.08 206.48 36.68C205.693 36.28 205.073 35.7 204.62 34.94C204.166 34.18 203.94 33.2667 203.94 32.2V31.88C203.94 30.8133 204.166 29.9 204.62 29.14C205.073 28.38 205.693 27.8 206.48 27.4C207.266 27 208.153 26.8 209.14 26.8C210.126 26.8 211.013 27 211.8 27.4C212.586 27.8 213.206 28.38 213.66 29.14C214.113 29.9 214.34 30.8133 214.34 31.88V32.2C214.34 33.2667 214.113 34.18 213.66 34.94C213.206 35.7 212.586 36.28 211.8 36.68C211.013 37.08 210.126 37.28 209.14 37.28ZM209.14 35.04C209.913 35.04 210.553 34.7933 211.06 34.3C211.566 33.7933 211.82 33.0733 211.82 32.14V31.94C211.82 31.0067 211.566 30.2933 211.06 29.8C210.566 29.2933 209.926 29.04 209.14 29.04C208.366 29.04 207.726 29.2933 207.22 29.8C206.713 30.2933 206.46 31.0067 206.46 31.94V32.14C206.46 33.0733 206.713 33.7933 207.22 34.3C207.726 34.7933 208.366 35.04 209.14 35.04ZM216.666 41V27.08H219.146V28.28H219.506C219.732 27.8933 220.086 27.5533 220.566 27.26C221.046 26.9533 221.732 26.8 222.626 26.8C223.426 26.8 224.166 27 224.846 27.4C225.526 27.7867 226.072 28.36 226.486 29.12C226.899 29.88 227.106 30.8 227.106 31.88V32.2C227.106 33.28 226.899 34.2 226.486 34.96C226.072 35.72 225.526 36.3 224.846 36.7C224.166 37.0867 223.426 37.28 222.626 37.28C222.026 37.28 221.519 37.2067 221.106 37.06C220.706 36.9267 220.379 36.7533 220.126 36.54C219.886 36.3133 219.692 36.0867 219.546 35.86H219.186V41H216.666ZM221.866 35.08C222.652 35.08 223.299 34.8333 223.806 34.34C224.326 33.8333 224.586 33.1 224.586 32.14V31.94C224.586 30.98 224.326 30.2533 223.806 29.76C223.286 29.2533 222.639 29 221.866 29C221.092 29 220.446 29.2533 219.926 29.76C219.406 30.2533 219.146 30.98 219.146 31.94V32.14C219.146 33.1 219.406 33.8333 219.926 34.34C220.446 34.8333 221.092 35.08 221.866 35.08ZM233.2 37.16C232.426 37.16 231.746 36.9867 231.16 36.64C230.586 36.28 230.14 35.7867 229.82 35.16C229.5 34.5333 229.34 33.8133 229.34 33V27.08H231.86V32.8C231.86 33.5467 232.04 34.1067 232.4 34.48C232.773 34.8533 233.3 35.04 233.98 35.04C234.753 35.04 235.353 34.7867 235.78 34.28C236.206 33.76 236.42 33.04 236.42 32.12V27.08H238.94V37H236.46V35.7H236.1C235.94 36.0333 235.64 36.36 235.2 36.68C234.76 37 234.093 37.16 233.2 37.16ZM241.744 37V23H244.264V37H241.744ZM250.136 37.28C249.43 37.28 248.796 37.16 248.236 36.92C247.676 36.6667 247.23 36.3067 246.896 35.84C246.576 35.36 246.416 34.78 246.416 34.1C246.416 33.42 246.576 32.8533 246.896 32.4C247.23 31.9333 247.683 31.5867 248.256 31.36C248.843 31.12 249.51 31 250.256 31H252.976V30.44C252.976 29.9733 252.83 29.5933 252.536 29.3C252.243 28.9933 251.776 28.84 251.136 28.84C250.51 28.84 250.043 28.9867 249.736 29.28C249.43 29.56 249.23 29.9267 249.136 30.38L246.816 29.6C246.976 29.0933 247.23 28.6333 247.576 28.22C247.936 27.7933 248.41 27.4533 248.996 27.2C249.596 26.9333 250.323 26.8 251.176 26.8C252.483 26.8 253.516 27.1267 254.276 27.78C255.036 28.4333 255.416 29.38 255.416 30.62V34.32C255.416 34.72 255.603 34.92 255.976 34.92H256.776V37H255.096C254.603 37 254.196 36.88 253.876 36.64C253.556 36.4 253.396 36.08 253.396 35.68V35.66H253.016C252.963 35.82 252.843 36.0333 252.656 36.3C252.47 36.5533 252.176 36.78 251.776 36.98C251.376 37.18 250.83 37.28 250.136 37.28ZM250.576 35.24C251.283 35.24 251.856 35.0467 252.296 34.66C252.75 34.26 252.976 33.7333 252.976 33.08V32.88H250.436C249.97 32.88 249.603 32.98 249.336 33.18C249.07 33.38 248.936 33.66 248.936 34.02C248.936 34.38 249.076 34.6733 249.356 34.9C249.636 35.1267 250.043 35.24 250.576 35.24ZM258.619 37V27.08H261.099V28.2H261.459C261.605 27.8 261.845 27.5067 262.179 27.32C262.525 27.1333 262.925 27.04 263.379 27.04H264.579V29.28H263.339C262.699 29.28 262.172 29.4533 261.759 29.8C261.345 30.1333 261.139 30.6533 261.139 31.36V37H258.619ZM271.627 41V27.08H274.107V28.28H274.467C274.693 27.8933 275.047 27.5533 275.527 27.26C276.007 26.9533 276.693 26.8 277.587 26.8C278.387 26.8 279.127 27 279.807 27.4C280.487 27.7867 281.033 28.36 281.447 29.12C281.86 29.88 282.067 30.8 282.067 31.88V32.2C282.067 33.28 281.86 34.2 281.447 34.96C281.033 35.72 280.487 36.3 279.807 36.7C279.127 37.0867 278.387 37.28 277.587 37.28C276.987 37.28 276.48 37.2067 276.067 37.06C275.667 36.9267 275.34 36.7533 275.087 36.54C274.847 36.3133 274.653 36.0867 274.507 35.86H274.147V41H271.627ZM276.827 35.08C277.613 35.08 278.26 34.8333 278.767 34.34C279.287 33.8333 279.547 33.1 279.547 32.14V31.94C279.547 30.98 279.287 30.2533 278.767 29.76C278.247 29.2533 277.6 29 276.827 29C276.053 29 275.407 29.2533 274.887 29.76C274.367 30.2533 274.107 30.98 274.107 31.94V32.14C274.107 33.1 274.367 33.8333 274.887 34.34C275.407 34.8333 276.053 35.08 276.827 35.08ZM284.38 37V27.08H286.86V28.2H287.22C287.367 27.8 287.607 27.5067 287.94 27.32C288.287 27.1333 288.687 27.04 289.14 27.04H290.34V29.28H289.1C288.46 29.28 287.934 29.4533 287.52 29.8C287.107 30.1333 286.9 30.6533 286.9 31.36V37H284.38ZM296.679 37.28C295.692 37.28 294.805 37.08 294.019 36.68C293.232 36.28 292.612 35.7 292.159 34.94C291.705 34.18 291.479 33.2667 291.479 32.2V31.88C291.479 30.8133 291.705 29.9 292.159 29.14C292.612 28.38 293.232 27.8 294.019 27.4C294.805 27 295.692 26.8 296.679 26.8C297.665 26.8 298.552 27 299.339 27.4C300.125 27.8 300.745 28.38 301.199 29.14C301.652 29.9 301.879 30.8133 301.879 31.88V32.2C301.879 33.2667 301.652 34.18 301.199 34.94C300.745 35.7 300.125 36.28 299.339 36.68C298.552 37.08 297.665 37.28 296.679 37.28ZM296.679 35.04C297.452 35.04 298.092 34.7933 298.599 34.3C299.105 33.7933 299.359 33.0733 299.359 32.14V31.94C299.359 31.0067 299.105 30.2933 298.599 29.8C298.105 29.2933 297.465 29.04 296.679 29.04C295.905 29.04 295.265 29.2933 294.759 29.8C294.252 30.2933 293.999 31.0067 293.999 31.94V32.14C293.999 33.0733 294.252 33.7933 294.759 34.3C295.265 34.7933 295.905 35.04 296.679 35.04ZM308.205 37.28C307.418 37.28 306.678 37.0867 305.985 36.7C305.305 36.3 304.758 35.72 304.345 34.96C303.931 34.2 303.725 33.28 303.725 32.2V31.88C303.725 30.8 303.931 29.88 304.345 29.12C304.758 28.36 305.305 27.7867 305.985 27.4C306.665 27 307.405 26.8 308.205 26.8C308.805 26.8 309.305 26.8733 309.705 27.02C310.118 27.1533 310.451 27.3267 310.705 27.54C310.958 27.7533 311.151 27.98 311.285 28.22H311.645V23H314.165V37H311.685V35.8H311.325C311.098 36.1733 310.745 36.5133 310.265 36.82C309.798 37.1267 309.111 37.28 308.205 37.28ZM308.965 35.08C309.738 35.08 310.385 34.8333 310.905 34.34C311.425 33.8333 311.685 33.1 311.685 32.14V31.94C311.685 30.98 311.425 30.2533 310.905 29.76C310.398 29.2533 309.751 29 308.965 29C308.191 29 307.545 29.2533 307.025 29.76C306.505 30.2533 306.245 30.98 306.245 31.94V32.14C306.245 33.1 306.505 33.8333 307.025 34.34C307.545 34.8333 308.191 35.08 308.965 35.08ZM320.739 37.16C319.965 37.16 319.285 36.9867 318.699 36.64C318.125 36.28 317.679 35.7867 317.359 35.16C317.039 34.5333 316.879 33.8133 316.879 33V27.08H319.399V32.8C319.399 33.5467 319.579 34.1067 319.939 34.48C320.312 34.8533 320.839 35.04 321.519 35.04C322.292 35.04 322.892 34.7867 323.319 34.28C323.745 33.76 323.959 33.04 323.959 32.12V27.08H326.479V37H323.999V35.7H323.639C323.479 36.0333 323.179 36.36 322.739 36.68C322.299 37 321.632 37.16 320.739 37.16ZM333.943 37.28C332.983 37.28 332.109 37.08 331.323 36.68C330.549 36.28 329.936 35.7 329.483 34.94C329.029 34.18 328.803 33.26 328.803 32.18V31.9C328.803 30.82 329.029 29.9 329.483 29.14C329.936 28.38 330.549 27.8 331.323 27.4C332.109 27 332.983 26.8 333.943 26.8C334.889 26.8 335.703 26.9667 336.383 27.3C337.063 27.6333 337.609 28.0933 338.023 28.68C338.449 29.2533 338.729 29.9067 338.863 30.64L336.423 31.16C336.369 30.76 336.249 30.4 336.063 30.08C335.876 29.76 335.609 29.5067 335.263 29.32C334.929 29.1333 334.509 29.04 334.003 29.04C333.496 29.04 333.036 29.1533 332.623 29.38C332.223 29.5933 331.903 29.92 331.663 30.36C331.436 30.7867 331.323 31.3133 331.323 31.94V32.14C331.323 32.7667 331.436 33.3 331.663 33.74C331.903 34.1667 332.223 34.4933 332.623 34.72C333.036 34.9333 333.496 35.04 334.003 35.04C334.763 35.04 335.336 34.8467 335.723 34.46C336.123 34.06 336.376 33.54 336.483 32.9L338.923 33.48C338.749 34.1867 338.449 34.8333 338.023 35.42C337.609 35.9933 337.063 36.4467 336.383 36.78C335.703 37.1133 334.889 37.28 333.943 37.28ZM344.47 37C343.816 37 343.283 36.8 342.87 36.4C342.47 35.9867 342.27 35.44 342.27 34.76V29.16H339.79V27.08H342.27V24H344.79V27.08H347.51V29.16H344.79V34.32C344.79 34.72 344.976 34.92 345.35 34.92H347.27V37H344.47ZM353.911 37.28C352.617 37.28 351.557 37 350.731 36.44C349.904 35.88 349.404 35.08 349.231 34.04L351.551 33.44C351.644 33.9067 351.797 34.2733 352.011 34.54C352.237 34.8067 352.511 35 352.831 35.12C353.164 35.2267 353.524 35.28 353.911 35.28C354.497 35.28 354.931 35.18 355.211 34.98C355.491 34.7667 355.631 34.5067 355.631 34.2C355.631 33.8933 355.497 33.66 355.231 33.5C354.964 33.3267 354.537 33.1867 353.951 33.08L353.391 32.98C352.697 32.8467 352.064 32.6667 351.491 32.44C350.917 32.2 350.457 31.8733 350.111 31.46C349.764 31.0467 349.591 30.5133 349.591 29.86C349.591 28.8733 349.951 28.12 350.671 27.6C351.391 27.0667 352.337 26.8 353.511 26.8C354.617 26.8 355.537 27.0467 356.271 27.54C357.004 28.0333 357.484 28.68 357.711 29.48L355.371 30.2C355.264 29.6933 355.044 29.3333 354.711 29.12C354.391 28.9067 353.991 28.8 353.511 28.8C353.031 28.8 352.664 28.8867 352.411 29.06C352.157 29.22 352.031 29.4467 352.031 29.74C352.031 30.06 352.164 30.3 352.431 30.46C352.697 30.6067 353.057 30.72 353.511 30.8L354.071 30.9C354.817 31.0333 355.491 31.2133 356.091 31.44C356.704 31.6533 357.184 31.9667 357.531 32.38C357.891 32.78 358.071 33.3267 358.071 34.02C358.071 35.06 357.691 35.8667 356.931 36.44C356.184 37 355.177 37.28 353.911 37.28Z" fill="black"/>
</g>
<g clip-path="url(#clip1_41_48)">
<rect width="375" height="60" transform="translate(375)" fill="#FFFDB7"/>
<path d="M439 17L439.006 46.9705L450.481 19.2836L439.017 46.9751L460.213 25.7868L439.025 46.9833L466.716 35.5194L439.03 46.9942L469 47L439.03 47.0058L466.716 58.4806L439.025 47.0167L460.213 68.2131L439.017 47.0249L450.481 74.7164L439.006 47.0295L439 77L438.994 47.0295L427.519 74.7164L438.983 47.0249L417.787 68.2131L438.975 47.0167L411.284 58.4806L438.97 47.0058L409 47L438.97 46.9942L411.284 35.5194L438.975 46.9833L417.787 25.7868L438.983 46.9751L427.519 19.2836L438.994 46.9705L439 17Z" stroke="#161C2E" stroke-width="1.5"/>
<path d="M642.876 2.27502L643 0.531381L643.124 2.27502C643.436 6.65197 644.628 10.5974 646.429 13.599C648.224 16.5909 650.674 18.7189 653.521 19.282L657.152 20L653.521 20.718C650.674 21.2811 648.224 23.4091 646.429 26.401C644.628 29.4026 643.436 33.348 643.124 37.7249L643 39.4686L642.876 37.7249C642.564 33.348 641.372 29.4026 639.571 26.401C637.776 23.4091 635.326 21.2811 632.479 20.718L628.848 20L632.479 19.282C635.326 18.7189 637.776 16.5909 639.571 13.599C641.372 10.5974 642.564 6.65197 642.876 2.27502Z" stroke="#161C2E" stroke-width="1.5"/>
<path d="M393.521 37V23H396.041V28.3H396.401C396.508 28.0867 396.674 27.8733 396.901 27.66C397.128 27.4467 397.428 27.2733 397.801 27.14C398.188 26.9933 398.674 26.92 399.261 26.92C400.034 26.92 400.708 27.1 401.281 27.46C401.868 27.8067 402.321 28.2933 402.641 28.92C402.961 29.5333 403.121 30.2533 403.121 31.08V37H400.601V31.28C400.601 30.5333 400.414 29.9733 400.041 29.6C399.681 29.2267 399.161 29.04 398.481 29.04C397.708 29.04 397.108 29.3 396.681 29.82C396.254 30.3267 396.041 31.04 396.041 31.96V37H393.521ZM405.845 37V27.08H408.365V37H405.845ZM407.105 25.92C406.652 25.92 406.265 25.7733 405.945 25.48C405.639 25.1867 405.485 24.8 405.485 24.32C405.485 23.84 405.639 23.4533 405.945 23.16C406.265 22.8667 406.652 22.72 407.105 22.72C407.572 22.72 407.959 22.8667 408.265 23.16C408.572 23.4533 408.725 23.84 408.725 24.32C408.725 24.8 408.572 25.1867 408.265 25.48C407.959 25.7733 407.572 25.92 407.105 25.92ZM410.678 32.08V31.76C410.678 30.72 410.884 29.8333 411.298 29.1C411.711 28.3533 412.258 27.7867 412.938 27.4C413.631 27 414.384 26.8 415.198 26.8C416.104 26.8 416.791 26.96 417.258 27.28C417.724 27.6 418.064 27.9333 418.278 28.28H418.638V27.08H421.118V38.76C421.118 39.44 420.918 39.98 420.518 40.38C420.118 40.7933 419.584 41 418.918 41H412.278V38.8H418.038C418.411 38.8 418.598 38.6 418.598 38.2V35.62H418.238C418.104 35.8333 417.918 36.0533 417.678 36.28C417.438 36.4933 417.118 36.6733 416.718 36.82C416.318 36.9667 415.811 37.04 415.198 37.04C414.384 37.04 413.631 36.8467 412.938 36.46C412.258 36.06 411.711 35.4933 411.298 34.76C410.884 34.0133 410.678 33.12 410.678 32.08ZM415.918 34.84C416.691 34.84 417.338 34.5933 417.858 34.1C418.378 33.6067 418.638 32.9133 418.638 32.02V31.82C418.638 30.9133 418.378 30.22 417.858 29.74C417.351 29.2467 416.704 29 415.918 29C415.144 29 414.498 29.2467 413.978 29.74C413.458 30.22 413.198 30.9133 413.198 31.82V32.02C413.198 32.9133 413.458 33.6067 413.978 34.1C414.498 34.5933 415.144 34.84 415.918 34.84ZM423.912 37V23H426.432V28.3H426.792C426.898 28.0867 427.065 27.8733 427.292 27.66C427.518 27.4467 427.818 27.2733 428.192 27.14C428.578 26.9933 429.065 26.92 429.652 26.92C430.425 26.92 431.098 27.1 431.672 27.46C432.258 27.8067 432.712 28.2933 433.032 28.92C433.352 29.5333 433.512 30.2533 433.512 31.08V37H430.992V31.28C430.992 30.5333 430.805 29.9733 430.432 29.6C430.072 29.2267 429.552 29.04 428.872 29.04C428.098 29.04 427.498 29.3 427.072 29.82C426.645 30.3267 426.432 31.04 426.432 31.96V37H423.912ZM436.196 33.04V30.76H442.116V33.04H436.196ZM449.389 37.28C448.402 37.28 447.529 37.0733 446.769 36.66C446.022 36.2333 445.435 35.64 445.009 34.88C444.595 34.1067 444.389 33.2 444.389 32.16V31.92C444.389 30.88 444.595 29.98 445.009 29.22C445.422 28.4467 446.002 27.8533 446.749 27.44C447.495 27.0133 448.362 26.8 449.349 26.8C450.322 26.8 451.169 27.02 451.889 27.46C452.609 27.8867 453.169 28.4867 453.569 29.26C453.969 30.02 454.169 30.9067 454.169 31.92V32.78H446.949C446.975 33.46 447.229 34.0133 447.709 34.44C448.189 34.8667 448.775 35.08 449.469 35.08C450.175 35.08 450.695 34.9267 451.029 34.62C451.362 34.3133 451.615 33.9733 451.789 33.6L453.849 34.68C453.662 35.0267 453.389 35.4067 453.029 35.82C452.682 36.22 452.215 36.5667 451.629 36.86C451.042 37.14 450.295 37.28 449.389 37.28ZM446.969 30.9H451.609C451.555 30.3267 451.322 29.8667 450.909 29.52C450.509 29.1733 449.982 29 449.329 29C448.649 29 448.109 29.1733 447.709 29.52C447.309 29.8667 447.062 30.3267 446.969 30.9ZM456.412 37V27.08H458.892V28.38H459.252C459.412 28.0333 459.712 27.7067 460.152 27.4C460.592 27.08 461.258 26.92 462.152 26.92C462.925 26.92 463.598 27.1 464.172 27.46C464.758 27.8067 465.212 28.2933 465.532 28.92C465.852 29.5333 466.012 30.2533 466.012 31.08V37H463.492V31.28C463.492 30.5333 463.305 29.9733 462.932 29.6C462.572 29.2267 462.052 29.04 461.372 29.04C460.598 29.04 459.998 29.3 459.572 29.82C459.145 30.3267 458.932 31.04 458.932 31.96V37H456.412ZM472.736 37.28C471.949 37.28 471.209 37.0867 470.516 36.7C469.836 36.3 469.289 35.72 468.876 34.96C468.463 34.2 468.256 33.28 468.256 32.2V31.88C468.256 30.8 468.463 29.88 468.876 29.12C469.289 28.36 469.836 27.7867 470.516 27.4C471.196 27 471.936 26.8 472.736 26.8C473.336 26.8 473.836 26.8733 474.236 27.02C474.649 27.1533 474.983 27.3267 475.236 27.54C475.489 27.7533 475.683 27.98 475.816 28.22H476.176V23H478.696V37H476.216V35.8H475.856C475.629 36.1733 475.276 36.5133 474.796 36.82C474.329 37.1267 473.643 37.28 472.736 37.28ZM473.496 35.08C474.269 35.08 474.916 34.8333 475.436 34.34C475.956 33.8333 476.216 33.1 476.216 32.14V31.94C476.216 30.98 475.956 30.2533 475.436 29.76C474.929 29.2533 474.283 29 473.496 29C472.723 29 472.076 29.2533 471.556 29.76C471.036 30.2533 470.776 30.98 470.776 31.94V32.14C470.776 33.1 471.036 33.8333 471.556 34.34C472.076 34.8333 472.723 35.08 473.496 35.08ZM490.688 37.28C489.395 37.28 488.335 37 487.508 36.44C486.681 35.88 486.181 35.08 486.008 34.04L488.328 33.44C488.421 33.9067 488.575 34.2733 488.788 34.54C489.015 34.8067 489.288 35 489.608 35.12C489.941 35.2267 490.301 35.28 490.688 35.28C491.275 35.28 491.708 35.18 491.988 34.98C492.268 34.7667 492.408 34.5067 492.408 34.2C492.408 33.8933 492.275 33.66 492.008 33.5C491.741 33.3267 491.315 33.1867 490.728 33.08L490.168 32.98C489.475 32.8467 488.841 32.6667 488.268 32.44C487.695 32.2 487.235 31.8733 486.888 31.46C486.541 31.0467 486.368 30.5133 486.368 29.86C486.368 28.8733 486.728 28.12 487.448 27.6C488.168 27.0667 489.115 26.8 490.288 26.8C491.395 26.8 492.315 27.0467 493.048 27.54C493.781 28.0333 494.261 28.68 494.488 29.48L492.148 30.2C492.041 29.6933 491.821 29.3333 491.488 29.12C491.168 28.9067 490.768 28.8 490.288 28.8C489.808 28.8 489.441 28.8867 489.188 29.06C488.935 29.22 488.808 29.4467 488.808 29.74C488.808 30.06 488.941 30.3 489.208 30.46C489.475 30.6067 489.835 30.72 490.288 30.8L490.848 30.9C491.595 31.0333 492.268 31.2133 492.868 31.44C493.481 31.6533 493.961 31.9667 494.308 32.38C494.668 32.78 494.848 33.3267 494.848 34.02C494.848 35.06 494.468 35.8667 493.708 36.44C492.961 37 491.955 37.28 490.688 37.28ZM500.058 37.28C499.351 37.28 498.718 37.16 498.158 36.92C497.598 36.6667 497.151 36.3067 496.818 35.84C496.498 35.36 496.338 34.78 496.338 34.1C496.338 33.42 496.498 32.8533 496.818 32.4C497.151 31.9333 497.605 31.5867 498.178 31.36C498.765 31.12 499.431 31 500.178 31H502.898V30.44C502.898 29.9733 502.751 29.5933 502.458 29.3C502.165 28.9933 501.698 28.84 501.058 28.84C500.431 28.84 499.965 28.9867 499.658 29.28C499.351 29.56 499.151 29.9267 499.058 30.38L496.738 29.6C496.898 29.0933 497.151 28.6333 497.498 28.22C497.858 27.7933 498.331 27.4533 498.918 27.2C499.518 26.9333 500.245 26.8 501.098 26.8C502.405 26.8 503.438 27.1267 504.198 27.78C504.958 28.4333 505.338 29.38 505.338 30.62V34.32C505.338 34.72 505.525 34.92 505.898 34.92H506.698V37H505.018C504.525 37 504.118 36.88 503.798 36.64C503.478 36.4 503.318 36.08 503.318 35.68V35.66H502.938C502.885 35.82 502.765 36.0333 502.578 36.3C502.391 36.5533 502.098 36.78 501.698 36.98C501.298 37.18 500.751 37.28 500.058 37.28ZM500.498 35.24C501.205 35.24 501.778 35.0467 502.218 34.66C502.671 34.26 502.898 33.7333 502.898 33.08V32.88H500.358C499.891 32.88 499.525 32.98 499.258 33.18C498.991 33.38 498.858 33.66 498.858 34.02C498.858 34.38 498.998 34.6733 499.278 34.9C499.558 35.1267 499.965 35.24 500.498 35.24ZM508.541 37V23H511.061V37H508.541ZM518.373 37.28C517.386 37.28 516.513 37.0733 515.753 36.66C515.006 36.2333 514.42 35.64 513.993 34.88C513.58 34.1067 513.373 33.2 513.373 32.16V31.92C513.373 30.88 513.58 29.98 513.993 29.22C514.406 28.4467 514.986 27.8533 515.733 27.44C516.48 27.0133 517.346 26.8 518.333 26.8C519.306 26.8 520.153 27.02 520.873 27.46C521.593 27.8867 522.153 28.4867 522.553 29.26C522.953 30.02 523.153 30.9067 523.153 31.92V32.78H515.933C515.96 33.46 516.213 34.0133 516.693 34.44C517.173 34.8667 517.76 35.08 518.453 35.08C519.16 35.08 519.68 34.9267 520.013 34.62C520.346 34.3133 520.6 33.9733 520.773 33.6L522.833 34.68C522.646 35.0267 522.373 35.4067 522.013 35.82C521.666 36.22 521.2 36.5667 520.613 36.86C520.026 37.14 519.28 37.28 518.373 37.28ZM515.953 30.9H520.593C520.54 30.3267 520.306 29.8667 519.893 29.52C519.493 29.1733 518.966 29 518.313 29C517.633 29 517.093 29.1733 516.693 29.52C516.293 29.8667 516.046 30.3267 515.953 30.9ZM529.516 37.28C528.223 37.28 527.163 37 526.336 36.44C525.509 35.88 525.009 35.08 524.836 34.04L527.156 33.44C527.249 33.9067 527.403 34.2733 527.616 34.54C527.843 34.8067 528.116 35 528.436 35.12C528.769 35.2267 529.129 35.28 529.516 35.28C530.103 35.28 530.536 35.18 530.816 34.98C531.096 34.7667 531.236 34.5067 531.236 34.2C531.236 33.8933 531.103 33.66 530.836 33.5C530.569 33.3267 530.143 33.1867 529.556 33.08L528.996 32.98C528.303 32.8467 527.669 32.6667 527.096 32.44C526.523 32.2 526.063 31.8733 525.716 31.46C525.369 31.0467 525.196 30.5133 525.196 29.86C525.196 28.8733 525.556 28.12 526.276 27.6C526.996 27.0667 527.943 26.8 529.116 26.8C530.223 26.8 531.143 27.0467 531.876 27.54C532.609 28.0333 533.089 28.68 533.316 29.48L530.976 30.2C530.869 29.6933 530.649 29.3333 530.316 29.12C529.996 28.9067 529.596 28.8 529.116 28.8C528.636 28.8 528.269 28.8867 528.016 29.06C527.763 29.22 527.636 29.4467 527.636 29.74C527.636 30.06 527.769 30.3 528.036 30.46C528.303 30.6067 528.663 30.72 529.116 30.8L529.676 30.9C530.423 31.0333 531.096 31.2133 531.696 31.44C532.309 31.6533 532.789 31.9667 533.136 32.38C533.496 32.78 533.676 33.3267 533.676 34.02C533.676 35.06 533.296 35.8667 532.536 36.44C531.789 37 530.783 37.28 529.516 37.28ZM545.683 37.28C544.696 37.28 543.809 37.08 543.023 36.68C542.236 36.28 541.616 35.7 541.163 34.94C540.709 34.18 540.483 33.2667 540.483 32.2V31.88C540.483 30.8133 540.709 29.9 541.163 29.14C541.616 28.38 542.236 27.8 543.023 27.4C543.809 27 544.696 26.8 545.683 26.8C546.669 26.8 547.556 27 548.343 27.4C549.129 27.8 549.749 28.38 550.203 29.14C550.656 29.9 550.883 30.8133 550.883 31.88V32.2C550.883 33.2667 550.656 34.18 550.203 34.94C549.749 35.7 549.129 36.28 548.343 36.68C547.556 37.08 546.669 37.28 545.683 37.28ZM545.683 35.04C546.456 35.04 547.096 34.7933 547.603 34.3C548.109 33.7933 548.363 33.0733 548.363 32.14V31.94C548.363 31.0067 548.109 30.2933 547.603 29.8C547.109 29.2933 546.469 29.04 545.683 29.04C544.909 29.04 544.269 29.2933 543.763 29.8C543.256 30.2933 543.003 31.0067 543.003 31.94V32.14C543.003 33.0733 543.256 33.7933 543.763 34.3C544.269 34.7933 544.909 35.04 545.683 35.04ZM554.517 37V29.16H551.997V27.08H554.517V25.24C554.517 24.56 554.717 24.02 555.117 23.62C555.53 23.2067 556.063 23 556.717 23H559.317V25.08H557.597C557.223 25.08 557.037 25.28 557.037 25.68V27.08H559.637V29.16H557.037V37H554.517ZM566.666 41V27.08H569.146V28.28H569.506C569.732 27.8933 570.086 27.5533 570.566 27.26C571.046 26.9533 571.732 26.8 572.626 26.8C573.426 26.8 574.166 27 574.846 27.4C575.526 27.7867 576.072 28.36 576.486 29.12C576.899 29.88 577.106 30.8 577.106 31.88V32.2C577.106 33.28 576.899 34.2 576.486 34.96C576.072 35.72 575.526 36.3 574.846 36.7C574.166 37.0867 573.426 37.28 572.626 37.28C572.026 37.28 571.519 37.2067 571.106 37.06C570.706 36.9267 570.379 36.7533 570.126 36.54C569.886 36.3133 569.692 36.0867 569.546 35.86H569.186V41H566.666ZM571.866 35.08C572.652 35.08 573.299 34.8333 573.806 34.34C574.326 33.8333 574.586 33.1 574.586 32.14V31.94C574.586 30.98 574.326 30.2533 573.806 29.76C573.286 29.2533 572.639 29 571.866 29C571.092 29 570.446 29.2533 569.926 29.76C569.406 30.2533 569.146 30.98 569.146 31.94V32.14C569.146 33.1 569.406 33.8333 569.926 34.34C570.446 34.8333 571.092 35.08 571.866 35.08ZM584.14 37.28C583.153 37.28 582.266 37.08 581.48 36.68C580.693 36.28 580.073 35.7 579.62 34.94C579.166 34.18 578.94 33.2667 578.94 32.2V31.88C578.94 30.8133 579.166 29.9 579.62 29.14C580.073 28.38 580.693 27.8 581.48 27.4C582.266 27 583.153 26.8 584.14 26.8C585.126 26.8 586.013 27 586.8 27.4C587.586 27.8 588.206 28.38 588.66 29.14C589.113 29.9 589.34 30.8133 589.34 31.88V32.2C589.34 33.2667 589.113 34.18 588.66 34.94C588.206 35.7 587.586 36.28 586.8 36.68C586.013 37.08 585.126 37.28 584.14 37.28ZM584.14 35.04C584.913 35.04 585.553 34.7933 586.06 34.3C586.566 33.7933 586.82 33.0733 586.82 32.14V31.94C586.82 31.0067 586.566 30.2933 586.06 29.8C585.566 29.2933 584.926 29.04 584.14 29.04C583.366 29.04 582.726 29.2933 582.22 29.8C581.713 30.2933 581.46 31.0067 581.46 31.94V32.14C581.46 33.0733 581.713 33.7933 582.22 34.3C582.726 34.7933 583.366 35.04 584.14 35.04ZM591.666 41V27.08H594.146V28.28H594.506C594.732 27.8933 595.086 27.5533 595.566 27.26C596.046 26.9533 596.732 26.8 597.626 26.8C598.426 26.8 599.166 27 599.846 27.4C600.526 27.7867 601.072 28.36 601.486 29.12C601.899 29.88 602.106 30.8 602.106 31.88V32.2C602.106 33.28 601.899 34.2 601.486 34.96C601.072 35.72 600.526 36.3 599.846 36.7C599.166 37.0867 598.426 37.28 597.626 37.28C597.026 37.28 596.519 37.2067 596.106 37.06C595.706 36.9267 595.379 36.7533 595.126 36.54C594.886 36.3133 594.692 36.0867 594.546 35.86H594.186V41H591.666ZM596.866 35.08C597.652 35.08 598.299 34.8333 598.806 34.34C599.326 33.8333 599.586 33.1 599.586 32.14V31.94C599.586 30.98 599.326 30.2533 598.806 29.76C598.286 29.2533 597.639 29 596.866 29C596.092 29 595.446 29.2533 594.926 29.76C594.406 30.2533 594.146 30.98 594.146 31.94V32.14C594.146 33.1 594.406 33.8333 594.926 34.34C595.446 34.8333 596.092 35.08 596.866 35.08ZM608.2 37.16C607.426 37.16 606.746 36.9867 606.16 36.64C605.586 36.28 605.14 35.7867 604.82 35.16C604.5 34.5333 604.34 33.8133 604.34 33V27.08H606.86V32.8C606.86 33.5467 607.04 34.1067 607.4 34.48C607.773 34.8533 608.3 35.04 608.98 35.04C609.753 35.04 610.353 34.7867 610.78 34.28C611.206 33.76 611.42 33.04 611.42 32.12V27.08H613.94V37H611.46V35.7H611.1C610.94 36.0333 610.64 36.36 610.2 36.68C609.76 37 609.093 37.16 608.2 37.16ZM616.744 37V23H619.264V37H616.744ZM625.136 37.28C624.43 37.28 623.796 37.16 623.236 36.92C622.676 36.6667 622.23 36.3067 621.896 35.84C621.576 35.36 621.416 34.78 621.416 34.1C621.416 33.42 621.576 32.8533 621.896 32.4C622.23 31.9333 622.683 31.5867 623.256 31.36C623.843 31.12 624.51 31 625.256 31H627.976V30.44C627.976 29.9733 627.83 29.5933 627.536 29.3C627.243 28.9933 626.776 28.84 626.136 28.84C625.51 28.84 625.043 28.9867 624.736 29.28C624.43 29.56 624.23 29.9267 624.136 30.38L621.816 29.6C621.976 29.0933 622.23 28.6333 622.576 28.22C622.936 27.7933 623.41 27.4533 623.996 27.2C624.596 26.9333 625.323 26.8 626.176 26.8C627.483 26.8 628.516 27.1267 629.276 27.78C630.036 28.4333 630.416 29.38 630.416 30.62V34.32C630.416 34.72 630.603 34.92 630.976 34.92H631.776V37H630.096C629.603 37 629.196 36.88 628.876 36.64C628.556 36.4 628.396 36.08 628.396 35.68V35.66H628.016C627.963 35.82 627.843 36.0333 627.656 36.3C627.47 36.5533 627.176 36.78 626.776 36.98C626.376 37.18 625.83 37.28 625.136 37.28ZM625.576 35.24C626.283 35.24 626.856 35.0467 627.296 34.66C627.75 34.26 627.976 33.7333 627.976 33.08V32.88H625.436C624.97 32.88 624.603 32.98 624.336 33.18C624.07 33.38 623.936 33.66 623.936 34.02C623.936 34.38 624.076 34.6733 624.356 34.9C624.636 35.1267 625.043 35.24 625.576 35.24ZM633.619 37V27.08H636.099V28.2H636.459C636.605 27.8 636.845 27.5067 637.179 27.32C637.525 27.1333 637.925 27.04 638.379 27.04H639.579V29.28H638.339C637.699 29.28 637.172 29.4533 636.759 29.8C636.345 30.1333 636.139 30.6533 636.139 31.36V37H633.619ZM646.627 41V27.08H649.107V28.28H649.467C649.693 27.8933 650.047 27.5533 650.527 27.26C651.007 26.9533 651.693 26.8 652.587 26.8C653.387 26.8 654.127 27 654.807 27.4C655.487 27.7867 656.033 28.36 656.447 29.12C656.86 29.88 657.067 30.8 657.067 31.88V32.2C657.067 33.28 656.86 34.2 656.447 34.96C656.033 35.72 655.487 36.3 654.807 36.7C654.127 37.0867 653.387 37.28 652.587 37.28C651.987 37.28 651.48 37.2067 651.067 37.06C650.667 36.9267 650.34 36.7533 650.087 36.54C649.847 36.3133 649.653 36.0867 649.507 35.86H649.147V41H646.627ZM651.827 35.08C652.613 35.08 653.26 34.8333 653.767 34.34C654.287 33.8333 654.547 33.1 654.547 32.14V31.94C654.547 30.98 654.287 30.2533 653.767 29.76C653.247 29.2533 652.6 29 651.827 29C651.053 29 650.407 29.2533 649.887 29.76C649.367 30.2533 649.107 30.98 649.107 31.94V32.14C649.107 33.1 649.367 33.8333 649.887 34.34C650.407 34.8333 651.053 35.08 651.827 35.08ZM659.38 37V27.08H661.86V28.2H662.22C662.367 27.8 662.607 27.5067 662.94 27.32C663.287 27.1333 663.687 27.04 664.14 27.04H665.34V29.28H664.1C663.46 29.28 662.934 29.4533 662.52 29.8C662.107 30.1333 661.9 30.6533 661.9 31.36V37H659.38ZM671.679 37.28C670.692 37.28 669.805 37.08 669.019 36.68C668.232 36.28 667.612 35.7 667.159 34.94C666.705 34.18 666.479 33.2667 666.479 32.2V31.88C666.479 30.8133 666.705 29.9 667.159 29.14C667.612 28.38 668.232 27.8 669.019 27.4C669.805 27 670.692 26.8 671.679 26.8C672.665 26.8 673.552 27 674.339 27.4C675.125 27.8 675.745 28.38 676.199 29.14C676.652 29.9 676.879 30.8133 676.879 31.88V32.2C676.879 33.2667 676.652 34.18 676.199 34.94C675.745 35.7 675.125 36.28 674.339 36.68C673.552 37.08 672.665 37.28 671.679 37.28ZM671.679 35.04C672.452 35.04 673.092 34.7933 673.599 34.3C674.105 33.7933 674.359 33.0733 674.359 32.14V31.94C674.359 31.0067 674.105 30.2933 673.599 29.8C673.105 29.2933 672.465 29.04 671.679 29.04C670.905 29.04 670.265 29.2933 669.759 29.8C669.252 30.2933 668.999 31.0067 668.999 31.94V32.14C668.999 33.0733 669.252 33.7933 669.759 34.3C670.265 34.7933 670.905 35.04 671.679 35.04ZM683.205 37.28C682.418 37.28 681.678 37.0867 680.985 36.7C680.305 36.3 679.758 35.72 679.345 34.96C678.931 34.2 678.725 33.28 678.725 32.2V31.88C678.725 30.8 678.931 29.88 679.345 29.12C679.758 28.36 680.305 27.7867 680.985 27.4C681.665 27 682.405 26.8 683.205 26.8C683.805 26.8 684.305 26.8733 684.705 27.02C685.118 27.1533 685.451 27.3267 685.705 27.54C685.958 27.7533 686.151 27.98 686.285 28.22H686.645V23H689.165V37H686.685V35.8H686.325C686.098 36.1733 685.745 36.5133 685.265 36.82C684.798 37.1267 684.111 37.28 683.205 37.28ZM683.965 35.08C684.738 35.08 685.385 34.8333 685.905 34.34C686.425 33.8333 686.685 33.1 686.685 32.14V31.94C686.685 30.98 686.425 30.2533 685.905 29.76C685.398 29.2533 684.751 29 683.965 29C683.191 29 682.545 29.2533 682.025 29.76C681.505 30.2533 681.245 30.98 681.245 31.94V32.14C681.245 33.1 681.505 33.8333 682.025 34.34C682.545 34.8333 683.191 35.08 683.965 35.08ZM695.739 37.16C694.965 37.16 694.285 36.9867 693.699 36.64C693.125 36.28 692.679 35.7867 692.359 35.16C692.039 34.5333 691.879 33.8133 691.879 33V27.08H694.399V32.8C694.399 33.5467 694.579 34.1067 694.939 34.48C695.312 34.8533 695.839 35.04 696.519 35.04C697.292 35.04 697.892 34.7867 698.319 34.28C698.745 33.76 698.959 33.04 698.959 32.12V27.08H701.479V37H698.999V35.7H698.639C698.479 36.0333 698.179 36.36 697.739 36.68C697.299 37 696.632 37.16 695.739 37.16ZM708.943 37.28C707.983 37.28 707.109 37.08 706.323 36.68C705.549 36.28 704.936 35.7 704.483 34.94C704.029 34.18 703.803 33.26 703.803 32.18V31.9C703.803 30.82 704.029 29.9 704.483 29.14C704.936 28.38 705.549 27.8 706.323 27.4C707.109 27 707.983 26.8 708.943 26.8C709.889 26.8 710.703 26.9667 711.383 27.3C712.063 27.6333 712.609 28.0933 713.023 28.68C713.449 29.2533 713.729 29.9067 713.863 30.64L711.423 31.16C711.369 30.76 711.249 30.4 711.063 30.08C710.876 29.76 710.609 29.5067 710.263 29.32C709.929 29.1333 709.509 29.04 709.003 29.04C708.496 29.04 708.036 29.1533 707.623 29.38C707.223 29.5933 706.903 29.92 706.663 30.36C706.436 30.7867 706.323 31.3133 706.323 31.94V32.14C706.323 32.7667 706.436 33.3 706.663 33.74C706.903 34.1667 707.223 34.4933 707.623 34.72C708.036 34.9333 708.496 35.04 709.003 35.04C709.763 35.04 710.336 34.8467 710.723 34.46C711.123 34.06 711.376 33.54 711.483 32.9L713.923 33.48C713.749 34.1867 713.449 34.8333 713.023 35.42C712.609 35.9933 712.063 36.4467 711.383 36.78C710.703 37.1133 709.889 37.28 708.943 37.28ZM719.47 37C718.816 37 718.283 36.8 717.87 36.4C717.47 35.9867 717.27 35.44 717.27 34.76V29.16H714.79V27.08H717.27V24H719.79V27.08H722.51V29.16H719.79V34.32C719.79 34.72 719.976 34.92 720.35 34.92H722.27V37H719.47ZM728.911 37.28C727.617 37.28 726.557 37 725.731 36.44C724.904 35.88 724.404 35.08 724.231 34.04L726.551 33.44C726.644 33.9067 726.797 34.2733 727.011 34.54C727.237 34.8067 727.511 35 727.831 35.12C728.164 35.2267 728.524 35.28 728.911 35.28C729.497 35.28 729.931 35.18 730.211 34.98C730.491 34.7667 730.631 34.5067 730.631 34.2C730.631 33.8933 730.497 33.66 730.231 33.5C729.964 33.3267 729.537 33.1867 728.951 33.08L728.391 32.98C727.697 32.8467 727.064 32.6667 726.491 32.44C725.917 32.2 725.457 31.8733 725.111 31.46C724.764 31.0467 724.591 30.5133 724.591 29.86C724.591 28.8733 724.951 28.12 725.671 27.6C726.391 27.0667 727.337 26.8 728.511 26.8C729.617 26.8 730.537 27.0467 731.271 27.54C732.004 28.0333 732.484 28.68 732.711 29.48L730.371 30.2C730.264 29.6933 730.044 29.3333 729.711 29.12C729.391 28.9067 728.991 28.8 728.511 28.8C728.031 28.8 727.664 28.8867 727.411 29.06C727.157 29.22 727.031 29.4467 727.031 29.74C727.031 30.06 727.164 30.3 727.431 30.46C727.697 30.6067 728.057 30.72 728.511 30.8L729.071 30.9C729.817 31.0333 730.491 31.2133 731.091 31.44C731.704 31.6533 732.184 31.9667 732.531 32.38C732.891 32.78 733.071 33.3267 733.071 34.02C733.071 35.06 732.691 35.8667 731.931 36.44C731.184 37 730.177 37.28 728.911 37.28Z" fill="black"/>
</g>
<defs>
<clipPath id="clip0_41_48">
<rect width="375" height="60" fill="white"/>
</clipPath>
<clipPath id="clip1_41_48">
<rect width="375" height="60" fill="white" transform="translate(375)"/>
</clipPath>
</defs>
</svg>
