<svg width="66" height="66" viewBox="0 0 66 66" fill="none" xmlns="http://www.w3.org/2000/svg">
<path id="Smile" d="M20.0556 30.8001V30.3001H19.5556H13.6889H13.1889V30.8001C13.1889 41.8763 22.1682 50.8557 33.2444 50.8557C44.3209 50.8557 53.3 41.8763 53.3 30.8001V30.3001H52.8H46.9332H46.4332V30.8001C46.4332 38.084 40.5286 43.9889 33.2444 43.9889C25.9605 43.9889 20.0556 38.084 20.0556 30.8001ZM65.5 33C65.5 50.9494 50.9494 65.5 33 65.5C15.0507 65.5 0.5 50.9494 0.5 33C0.5 15.0507 15.0507 0.5 33 0.5C50.9494 0.5 65.5 15.0507 65.5 33ZM24.2001 27.8779C27.5811 27.8779 30.3222 25.1368 30.3222 21.7555C30.3222 18.3745 27.5811 15.6333 24.2001 15.6333C20.8188 15.6333 18.0777 18.3745 18.0777 21.7555C18.0777 25.1368 20.8188 27.8779 24.2001 27.8779ZM41.7999 27.8779C45.1812 27.8779 47.9223 25.1368 47.9223 21.7555C47.9223 18.3745 45.1812 15.6333 41.7999 15.6333C38.4189 15.6333 35.6778 18.3745 35.6778 21.7555C35.6778 25.1368 38.4189 27.8779 41.7999 27.8779Z" fill="#E36488" stroke="#161C2E"/>
</svg>
