<svg width="30" height="45" viewBox="0 0 30 45" fill="none" xmlns="http://www.w3.org/2000/svg">
<path d="M14.8759 2.27502L15 0.531391L15.1241 2.27502C15.4357 6.65197 16.6281 10.5974 18.429 13.599C20.2241 16.5909 22.6738 18.7189 25.5214 19.282L29.152 20L25.5214 20.718C22.6738 21.2811 20.2241 23.4091 18.429 26.401C16.6281 29.4026 15.4357 33.348 15.1241 37.7249L15 39.4685L14.8759 37.7249C14.5643 33.348 13.3719 29.4026 11.571 26.401C9.77585 23.4091 7.32614 21.2811 4.47855 20.718L0.847919 20L4.47855 19.282C7.32614 18.7189 9.77585 16.5909 11.571 13.599C13.3719 10.5974 14.5643 6.65197 14.8759 2.27502Z" stroke="#161C2E" stroke-width="1.5"/>
</svg>
